<svg height="512" viewBox="0 0 58 58" width="512" xmlns="http://www.w3.org/2000/svg"><g id="Page-1" fill="none" fill-rule="evenodd"><g id="003---Deadlines" fill-rule="nonzero"><path id="Shape" d="m52 14v12.59l-26.24 24.41h-21.76c-2.209139 0-4-1.790861-4-4v-33z" fill="#ecf0f1"/><rect id="Rectangle-path" fill="#95a5a5" height="5" rx="1" width="6" x="4" y="20"/><rect id="Rectangle-path" fill="#95a5a5" height="5" rx="1" width="6" x="15" y="20"/><rect id="Rectangle-path" fill="#95a5a5" height="5" rx="1" width="6" x="26" y="20"/><rect id="Rectangle-path" fill="#95a5a5" height="5" rx="1" width="6" x="15" y="30"/><rect id="Rectangle-path" fill="#95a5a5" height="5" rx="1" width="6" x="15" y="40"/><rect id="Rectangle-path" fill="#95a5a5" height="5" rx="1" width="6" x="4" y="30"/><rect id="Rectangle-path" fill="#95a5a5" height="5" rx="1" width="6" x="4" y="40"/><circle id="Oval" cx="40" cy="40" fill="#3b97d3" r="18"/><circle id="Oval" cx="40" cy="40" fill="#2980ba" r="16"/><path id="Shape" d="m54 40c-.0102094 6.2302834-4.1428381 11.7015447-10.1328592 13.4150743-5.990021 1.7135295-12.3909251-.7444671-15.6944804-6.0268016-3.3035552-5.2823346-2.7119976-12.1133945 1.4504498-16.7491865s10.8906096-5.9568348 16.4968898-3.2390862c4.8230375 2.3442004 7.8832595 7.2374487 7.88 12.6z" fill="#2fa8cc"/><path id="Shape" d="m46 33c-.0022237 7.3423284-5.6764256 13.4355483-13 13.96-.6655732.0539997-1.3344268.0539997-2 0-1.2033577-.0759624-2.3908503-.3148065-3.53-.71-.0271673-.0411568-.0505942-.0846639-.07-.13-3.3732226-6.9591889-.4737224-15.3355229 6.48-18.72 1.6030693-.7790664 3.3416344-1.2408727 5.12-1.36.6655933-.0535005 1.3344067-.0535005 2 0 1.2033577.0759624 2.3908503.3148065 3.53.71.0271673.0411568.0505942.0846639.07.13.9239508 1.907711 1.4026525 4.0003209 1.4 6.12z" fill="#67b9cc"/><g fill="#285680"><path id="Shape" d="m41 26.04v1.96c0 .5522847-.4477153 1-1 1s-1-.4477153-1-1v-1.96c.33-.03.66-.04 1-.04s.67.01 1 .04z"/><path id="Shape" d="m34.5 30.47c-.2288501.1362964-.5028629.1749377-.7604798.1072427-.257617-.0676949-.4772366-.2360498-.6095202-.4672427l-.98-1.7c.5544794-.3733084 1.1323323-.7106676 1.73-1.01l.99 1.71c.2713883.4779792.1061364 1.0853915-.37 1.36z"/><path id="Shape" d="m30.47 34.5c-.1761919.3088972-.5043864.499708-.86.5-.1751242.0007919-.3474391-.04401-.5-.13l-1.71-.99c.2993324-.5976677.6366916-1.1755206 1.01-1.73l1.7.98c.2297442.133628.3968418.3532172.4643886.6102702.0675467.257053.0299853.5304211-.1043886.7597298z"/><path id="Shape" d="m29 40c0 .5522847-.4477153 1-1 1h-1.96c-.03-.33-.04-.66-.04-1s.01-.67.04-1h1.96c.5522847 0 1 .4477153 1 1z"/><path id="Shape" d="m30.11 46.87-1.7.98c-.3733084-.5544794-.7106676-1.1323323-1.01-1.73l1.71-.99c.4804877-.2761424 1.0938576-.1104877 1.37.37s.1104877 1.0938576-.37 1.37z"/><path id="Shape" d="m34.87 50.89-.99 1.71c-.5976677-.2993324-1.1755206-.6366916-1.73-1.01l.98-1.7c.2761424-.4804877.8895123-.6461423 1.37-.37.4804877.2761424.6461424.8895123.37 1.37z"/><path id="Shape" d="m41 52v1.96c-.33.03-.66.04-1 .04s-.67-.01-1-.04v-1.96c0-.5522847.4477153-1 1-1s1 .4477153 1 1z"/><path id="Shape" d="m47.85 51.59c-.5544794.3733084-1.1323323.7106676-1.73 1.01l-.99-1.71c-.2761424-.4804877-.1104877-1.0938576.37-1.37.4804877-.2761423 1.0938576-.1104877 1.37.37z"/><path id="Shape" d="m52.6 46.12c-.2993324.5976677-.6366916 1.1755206-1.01 1.73l-1.7-.98c-.4804877-.2761424-.6461423-.8895123-.37-1.37.2761424-.4804877.8895123-.6461424 1.37-.37z"/><path id="Shape" d="m54 40c0 .34-.01.67-.04 1h-1.96c-.5522847 0-1-.4477153-1-1s.4477153-1 1-1h1.96c.03.33.04.66.04 1z"/><path id="Shape" d="m52.6 33.88-1.71.99c-.1525609.08599-.3248758.1307919-.5.13-.4553929.0031839-.8554212-.3017208-.9730546-.7416699-.1176335-.4399491.0768419-.903812.4730546-1.1283301l1.7-.98c.3733084.5544794.7106676 1.1323323 1.01 1.73z"/><path id="Shape" d="m47.85 28.41-.98 1.7c-.1322836.2311929-.3519032.3995478-.6095202.4672427-.2576169.067695-.5316297.0290537-.7604798-.1072427-.4761364-.2746085-.6413883-.8820208-.37-1.36l.99-1.71c.5976677.2993324 1.1755206.6366916 1.73 1.01z"/></g><path id="Shape" d="m44 45c-.2651948-.0000566-.5195073-.1054506-.707-.293l-4-4c-.2886867-.2889598-.3726169-.7244471-.212-1.1l3-7c.2225705-.4993742.8049312-.7274312 1.3074258-.5119982.5024946.2154329.7388258.7944852.5305742 1.2999982l-2.733 6.377 3.521 3.522c.2851942.2860871.3702546.7156659.2156011 1.0888467s-.518644.6166641-.9226011.6171533z" fill="#bdc3c7"/><path id="Shape" d="m52 7v9h-52v-9c0-2.209139 1.790861-4 4-4h44c2.209139 0 4 1.790861 4 4z" fill="#e64c3c"/><path id="Shape" d="m41 3c1.7799916.69615377 2.9644585 2.39704811 3 4.308-.1669773 2.63882398-2.3558984 4.6936142-5 4.6936142s-4.8330227-2.05479022-5-4.6936142c.0355415-1.91095189 1.2200084-3.61184623 3-4.308z" fill="#c03a2b"/><path id="Shape" d="m15 3c1.7799916.69615377 2.9644585 2.39704811 3 4.308-.0886126 2.67476119-2.3250095 4.773396-5 4.692-2.6749905.081396-4.91138737-2.01723881-5-4.692.03554154-1.91095189 1.22000835-3.61184623 3-4.308z" fill="#c03a2b"/><rect id="Rectangle-path" fill="#95a5a5" height="8" rx="2" width="4" x="37"/><rect id="Rectangle-path" fill="#95a5a5" height="8" rx="2" width="4" x="11"/></g></g></svg>