<svg id="Capa_1" enable-background="new 0 0 511 511" height="512" viewBox="0 0 511 511" width="512" xmlns="http://www.w3.org/2000/svg"><g><g id="Filled_1_"><circle cx="255.5" cy="255.5" fill="#e4e8ed" r="248"/><path d="m255.5 473.5c-131.928 0-239.778-103.02-247.535-233-.296 4.964-.465 9.962-.465 15 0 136.967 111.033 248 248 248s248-111.033 248-248c0-5.038-.168-10.036-.465-15-7.757 129.98-115.607 233-247.535 233z" fill="#c8d1da"/><circle cx="255.5" cy="255.5" fill="#feef8f" r="210"/><path d="m255.5 435.5c-110.935 0-201.768-86.022-209.461-195-.35 4.956-.539 9.956-.539 15 0 115.98 94.02 210 210 210s210-94.02 210-210c0-5.044-.189-10.044-.539-15-7.693 108.978-98.526 195-209.461 195z" fill="#f6e23d"/><path d="m355.5 248.5c0-11.046-8.954-20-20-20h-40l-5.46 39h65.46z" fill="#b6e6fa"/><path d="m355.5 267.5h-65.46l-8.54 61h100v-41z" fill="#f88fa4"/><path d="m281.5 328.5h100v-30h-95.8z" fill="#f05475"/><path d="m281.5 328.5h-130l20-130h130z" fill="#decba0"/><path d="m156.115 298.5-4.615 30h130l4.615-30z" fill="#d4b981"/><path d="m247.5 258.5h-40l10-60h40z" fill="#e4e8ed"/><g fill="#757575"><circle cx="201.5" cy="328.5" r="24"/><circle cx="331.5" cy="328.5" r="24"/></g></g><g fill="#fff"><path d="m79.5 278h15v15h-15z"/><path d="m90.5 218h15v15h-15z"/><path d="m176.5 131h15v15h-15z"/></g><g id="Outline_1_"><path d="m106.5 248h15v15h-15z"/><path d="m389 283.807-26-20v-15.307c0-15.164-12.336-27.5-27.5-27.5h-29.873l4.615-30h-145.177l-4.154 27h-40.411v15h38.104l-2.308 15h-19.796v15h17.489l-2.308 15h-42.181v15h39.873l-4.308 28h-13.565v15h39.409c3.374 13.759 15.806 24 30.591 24s27.216-10.241 30.591-24h68.819c3.374 13.759 15.806 24 30.591 24s27.216-10.241 30.591-24h39.408v-15h-12.5zm-85.681-47.807h32.181c6.893 0 12.5 5.607 12.5 12.5v11.5h-48.373zm-79.465-30h24.793l-7.5 45h-24.793zm-22.354 139c-9.098 0-16.5-7.402-16.5-16.5s7.402-16.5 16.5-16.5 16.5 7.402 16.5 16.5-7.402 16.5-16.5 16.5zm30.591-24c-3.374-13.759-15.806-24-30.591-24s-27.216 10.241-30.591 24h-10.667l17.693-115h30.712l-10 60h55.207l10-60h28.904l-17.692 115zm99.409 24c-9.098 0-16.5-7.402-16.5-16.5s7.402-16.5 16.5-16.5 16.5 7.402 16.5 16.5-7.402 16.5-16.5 16.5zm42.5-24h-11.909c-3.374-13.759-15.806-24-30.591-24s-27.216 10.241-30.591 24h-10.667l7.077-46h55.63l21.051 16.193z"/><path d="m206.5 131h50v15h-50z"/><path d="m216.5 161h15v15h-15z"/><path d="m246.5 161h50v15h-50z"/><path d="m255.5 15c17.754 0 35.458 1.942 52.623 5.772l3.267-14.64c-18.235-4.069-37.039-6.132-55.89-6.132-93.266 0-179.128 50.828-224.079 132.648l13.146 7.223c42.316-77.023 123.141-124.871 210.933-124.871z"/><path d="m458.666 100.547c-33.14-43.387-80.127-75.56-132.308-90.592l-4.152 14.414c102.327 29.478 173.794 124.522 173.794 231.131 0 72.111-31.954 139.798-87.668 185.705l9.539 11.576c59.185-48.766 93.129-120.673 93.129-197.281 0-56.548-18.097-110.13-52.334-154.953z"/><path d="m15 255.5c0-35.926 7.727-70.479 22.965-102.697l-13.56-6.413c-16.194 34.239-24.405 70.949-24.405 109.11 0 73.325 31.571 143.208 86.618 191.731l9.919-11.253c-51.818-45.676-81.537-111.458-81.537-180.478z"/><path d="m255.5 496c-54.11 0-105.209-17.546-147.773-50.74l-9.225 11.828c45.225 35.269 99.514 53.912 156.998 53.912 54.387 0 106.31-16.86 150.155-48.756l-8.824-12.13c-41.265 30.019-90.136 45.886-141.331 45.886z"/><path d="m101.704 101.704c-41.08 41.081-63.704 95.7-63.704 153.796 0 13.835 1.309 27.684 3.89 41.16l14.732-2.822c-1.938-10.114-3.091-20.456-3.471-30.837h22.349v-15h-22.347c1.149-31.389 9.473-60.974 23.383-87.165l19.329 11.16 7.5-12.99-19.308-11.148c16.217-25.737 38.063-47.583 63.8-63.8l11.148 19.308 12.99-7.5-11.16-19.329c26.19-13.91 55.775-22.234 87.164-23.383v22.346h15v-22.35c30.621 1.133 60.408 9.183 87.188 23.346l-11.183 19.369 12.99 7.5 11.183-19.369c8.725 5.479 17.066 11.639 24.931 18.46l9.828-11.332c-39.499-34.257-90.085-53.124-142.436-53.124-58.096 0-112.715 22.624-153.796 63.704z"/><path d="m248 435.5v22.349c-10.382-.38-20.724-1.534-30.836-3.471l-2.822 14.732c13.474 2.581 27.322 3.89 41.159 3.89 58.096 0 112.715-22.624 153.796-63.704 41.079-41.081 63.703-95.7 63.703-153.796 0-58.095-22.623-112.712-63.701-153.793l-10.606 10.606c10.877 10.877 20.359 22.776 28.366 35.477l-19.424 11.215 7.5 12.99 19.444-11.226c14.158 26.683 22.154 56.351 23.271 87.231h-22.35v15h22.347c-1.149 31.389-9.473 60.974-23.383 87.165l-19.329-11.16-7.5 12.99 19.308 11.148c-16.217 25.737-38.063 47.583-63.8 63.8l-11.148-19.308-12.99 7.5 11.16 19.329c-26.19 13.91-55.775 22.234-87.164 23.383v-22.347z"/><path d="m95.865 339.005-19.389 11.195c-7.041-13.286-12.662-27.44-16.627-42.275l-14.491 3.873c20.012 74.882 78.962 133.832 153.845 153.844l3.873-14.491c-14.835-3.965-28.99-9.585-42.276-16.626l11.195-19.389-12.99-7.5-11.193 19.386c-25.768-16.211-47.623-38.065-63.833-63.833l19.386-11.193z"/></g></g></svg>